<?xml version="1.0" standalone="no"?>
<!DOCTYPE svg PUBLIC "-//W3C//DTD SVG 20010904//EN"
 "http://www.w3.org/TR/2001/REC-SVG-20010904/DTD/svg10.dtd">
<svg version="1.0" xmlns="http://www.w3.org/2000/svg"
 width="96.000000pt" height="96.000000pt" viewBox="0 0 96.000000 96.000000"
 preserveAspectRatio="xMidYMid meet">
<metadata>
Created by potrace 1.14, written by Peter Selinger 2001-2017
</metadata>
<g transform="translate(0.000000,96.000000) scale(0.100000,-0.100000)"
fill="#000000" stroke="none">
<path d="M165 907 c-59 -24 -92 -50 -125 -98 -28 -41 -34 -60 -36 -110 -3 -72
9 -111 47 -161 29 -37 29 -38 29 -177 0 -130 1 -141 21 -154 11 -8 28 -30 37
-48 53 -104 193 -102 245 4 l19 37 78 0 78 0 19 -37 c24 -48 58 -72 113 -79
56 -7 106 23 133 79 15 30 24 37 47 37 44 0 53 20 48 112 -4 79 -7 87 -52 160
-69 110 -84 121 -161 126 l-65 4 0 47 c0 26 -5 52 -12 59 -7 7 -40 12 -80 12
-66 0 -69 1 -78 28 -26 70 -68 119 -126 147 -46 22 -140 28 -179 12z m164 -95
c50 -37 66 -70 66 -132 -1 -98 -58 -155 -155 -155 -87 1 -144 49 -156 132 -10
77 33 151 102 173 40 13 114 3 143 -18z m231 -352 l0 -180 -86 0 c-81 0 -87 2
-107 26 -22 29 -73 54 -110 54 -12 0 -39 -9 -60 -19 l-37 -19 0 62 0 61 72 0
c122 0 204 60 242 178 4 12 16 17 46 17 l40 0 0 -180z m232 -24 c35 -58 48
-90 48 -118 0 -21 -3 -38 -6 -38 -3 0 -16 13 -30 29 -30 36 -84 55 -130 48
l-34 -6 0 85 0 85 52 -3 52 -3 48 -79z m-492 -176 c25 -25 25 -55 0 -80 -11
-11 -29 -20 -40 -20 -26 0 -60 34 -60 60 0 11 9 29 20 40 11 11 29 20 40 20
11 0 29 -9 40 -20z m440 0 c11 -11 20 -29 20 -40 0 -26 -34 -60 -60 -60 -26 0
-60 34 -60 60 0 11 9 29 20 40 11 11 29 20 40 20 11 0 29 -9 40 -20z"/>
<path d="M200 694 c0 -62 3 -69 34 -104 l34 -38 28 29 28 29 -22 23 c-17 18
-22 36 -22 75 l0 52 -40 0 -40 0 0 -66z"/>
</g>
</svg>
